<?xml version="1.0" standalone="no"?>
<!DOCTYPE svg PUBLIC "-//W3C//DTD SVG 20010904//EN"
 "http://www.w3.org/TR/2001/REC-SVG-20010904/DTD/svg10.dtd">
<svg version="1.0" xmlns="http://www.w3.org/2000/svg"
 width="1024.000000pt" height="857.000000pt" viewBox="0 0 1024.000000 857.000000"
 preserveAspectRatio="xMidYMid meet">

<g transform="translate(0.000000,857.000000) scale(0.100000,-0.100000)"
fill="#000000" stroke="none">
<path d="M780 8380 c-270 -70 -481 -269 -577 -545 -25 -74 -27 -91 -28 -240 0
-140 3 -169 23 -235 89 -283 302 -485 592 -562 l85 -23 4245 0 4245 0 85 22
c113 30 250 99 331 167 127 106 227 266 269 430 28 109 28 283 0 392 -75 292
-303 520 -594 594 -79 20 -104 20 -4340 19 -4181 0 -4262 0 -4336 -19z"/>
<path d="M865 5093 c-275 -38 -529 -236 -635 -494 -48 -116 -63 -204 -58 -347
4 -109 9 -140 36 -221 92 -267 294 -457 572 -537 63 -18 197 -19 4305 -22
4683 -2 4322 -7 4482 60 312 129 503 416 503 753 0 371 -228 674 -592 787
l-73 23 -4255 1 c-2340 1 -4268 -1 -4285 -3z"/>
<path d="M881 1789 c-319 -41 -582 -263 -681 -574 -28 -88 -38 -280 -21 -380
27 -151 114 -318 226 -430 111 -111 280 -200 426 -225 46 -8 1270 -10 4329 -8
l4265 3 80 28 c265 93 454 285 535 542 34 107 40 313 11 425 -42 170 -145 335
-274 440 -74 61 -235 141 -332 166 -67 18 -257 19 -4285 20 -2318 1 -4244 -2
-4279 -7z"/>
</g>
</svg>
